<?xml version="1.0" encoding="UTF-8" ?>
<!DOCTYPE svg PUBLIC "-//W3C//DTD SVG 1.1//EN" "http://www.w3.org/Graphics/SVG/1.1/DTD/svg11.dtd">
<svg width="750pt" height="681pt" viewBox="0 0 750 681" version="1.1" xmlns="http://www.w3.org/2000/svg">
<g id="#fcefd5ff">
<path fill="#fcefd5" opacity="1.00" d=" M 20.45 27.15 C 22.56 26.63 24.78 26.96 26.94 26.88 C 223.29 26.90 419.64 26.89 615.99 26.89 C 652.41 26.95 688.83 26.77 725.25 26.98 C 723.90 27.60 722.50 27.91 721.04 27.91 C 487.54 27.87 254.03 27.94 20.52 27.87 C 20.80 33.24 21.01 38.61 20.91 43.99 C 20.92 78.63 20.89 113.28 20.89 147.92 C 21.06 153.61 20.68 159.28 20.52 164.97 C 20.57 237.31 20.46 309.66 20.59 382.01 C 19.81 411.55 25.84 440.98 35.84 468.68 C 48.29 503.20 68.08 535.01 93.47 561.49 C 121.10 590.20 155.32 612.10 192.08 627.20 C 227.77 641.92 265.70 650.63 303.96 655.24 C 331.19 658.30 358.61 660.16 386.02 659.24 C 394.74 659.66 403.39 658.24 412.10 658.10 C 437.87 656.12 463.69 653.19 488.87 647.26 C 507.61 643.51 525.95 637.92 543.87 631.32 C 553.51 627.43 563.30 623.80 572.46 618.83 C 576.21 616.74 580.66 615.71 583.70 612.51 C 584.20 612.44 585.19 612.29 585.68 612.21 C 594.01 607.54 602.35 602.83 610.07 597.19 C 659.43 564.62 696.57 514.34 714.13 457.92 C 721.07 435.65 725.99 412.43 725.40 389.00 C 725.40 276.31 725.40 163.63 725.40 50.94 C 725.51 43.35 725.17 35.75 725.59 28.16 C 726.48 30.70 726.04 33.42 726.14 36.05 C 726.13 160.38 726.12 284.71 726.14 409.04 C 726.20 410.82 725.96 412.71 724.55 413.96 C 724.38 416.65 724.43 419.35 724.38 422.05 C 721.22 424.59 724.93 430.41 721.50 432.91 C 721.38 434.31 721.31 435.74 721.23 437.16 C 718.26 439.26 721.37 444.07 718.37 445.70 C 718.30 446.89 718.25 448.09 718.22 449.30 C 717.69 450.09 717.17 450.90 716.65 451.71 C 716.29 453.35 717.30 455.86 715.41 456.80 C 715.83 459.59 713.49 461.30 713.26 463.92 C 712.37 465.91 712.45 468.41 710.81 470.00 C 709.75 472.65 709.45 475.79 707.63 478.03 C 707.17 479.36 707.63 481.30 705.98 481.92 C 705.71 483.28 705.45 484.68 704.50 485.76 C 704.23 486.99 703.57 488.05 702.80 489.03 C 702.70 489.61 702.49 490.75 702.39 491.33 C 701.44 492.78 700.70 494.37 699.82 495.86 C 699.15 498.03 697.79 499.86 696.57 501.73 C 696.54 504.23 694.40 505.73 693.47 507.86 C 691.94 511.07 689.73 513.90 688.22 517.12 C 687.46 518.40 686.81 519.77 685.80 520.88 C 683.94 523.75 681.88 526.51 680.31 529.56 L 679.76 529.65 C 678.85 532.47 676.63 534.56 674.73 536.74 C 672.02 540.69 668.77 544.23 665.81 547.98 C 665.11 549.17 664.29 550.30 663.32 551.29 C 660.55 554.20 657.95 557.24 655.13 560.10 C 652.15 562.49 650.07 565.77 647.07 568.12 C 642.59 572.58 638.13 577.10 632.89 580.67 C 621.67 590.86 608.76 598.81 596.03 606.89 C 591.55 608.75 587.87 612.20 583.30 613.79 C 582.21 614.48 581.12 615.19 580.03 615.88 C 577.82 616.77 575.75 617.91 573.79 619.26 C 569.45 620.35 565.93 623.43 561.60 624.63 C 554.90 627.82 548.05 630.66 540.98 632.94 C 540.01 633.42 538.98 633.76 537.91 633.96 C 537.57 634.26 536.88 634.86 536.53 635.16 C 535.85 635.25 534.47 635.43 533.79 635.52 C 532.56 636.12 531.22 636.48 529.93 636.90 C 528.00 637.70 526.02 638.39 524.11 639.23 C 523.34 639.32 521.79 639.52 521.01 639.62 C 519.07 641.29 516.25 640.85 514.05 642.01 C 510.51 642.49 507.24 644.03 503.76 644.76 C 502.20 645.24 500.27 645.04 499.11 646.37 C 497.41 646.46 495.72 646.53 494.03 646.69 C 489.99 649.52 484.40 648.31 480.21 650.43 C 475.15 650.49 470.46 652.58 465.39 652.42 C 465.06 652.64 464.39 653.09 464.05 653.31 C 461.70 653.54 459.33 653.58 456.98 653.77 C 453.13 656.66 447.79 653.62 443.89 656.23 C 441.25 656.47 438.61 656.31 435.98 656.46 C 429.14 659.35 421.53 656.95 414.42 658.22 C 407.50 660.51 400.01 658.13 393.02 660.27 C 380.72 660.68 368.34 660.88 356.05 660.07 C 348.54 658.24 340.65 660.37 333.17 658.33 C 326.56 656.80 319.34 659.33 313.01 656.64 C 309.07 655.95 304.88 657.16 301.10 655.57 C 297.96 654.63 294.54 655.56 291.41 654.44 C 288.37 653.20 285.06 653.65 281.87 653.38 C 280.12 651.20 276.72 652.85 274.36 651.66 C 271.11 650.15 267.14 651.63 264.17 649.48 C 262.81 649.35 261.44 649.26 260.09 649.13 C 257.71 647.42 254.34 648.62 252.04 646.70 C 250.64 646.52 249.25 646.40 247.86 646.26 C 247.43 646.04 246.57 645.61 246.14 645.39 C 241.23 645.12 236.83 642.57 231.98 642.06 C 226.85 639.84 221.25 638.98 216.07 636.89 C 209.75 634.59 203.25 632.58 197.18 629.70 C 196.58 629.58 195.38 629.34 194.78 629.22 C 190.30 626.78 185.22 625.53 180.91 622.74 C 180.40 622.59 179.38 622.28 178.86 622.13 C 176.87 621.06 174.80 620.16 172.76 619.21 C 166.39 616.03 160.13 612.66 153.90 609.22 C 150.36 607.03 146.72 605.01 143.25 602.70 C 141.33 601.24 139.24 600.03 137.23 598.72 C 130.93 593.97 124.08 589.98 118.19 584.70 C 107.24 575.32 96.47 565.71 86.43 555.34 C 86.16 554.95 85.62 554.16 85.34 553.76 C 80.28 548.43 75.87 542.54 71.25 536.83 C 69.25 534.31 67.76 531.43 65.60 529.04 C 65.58 528.75 65.54 528.18 65.51 527.89 C 64.04 527.57 63.89 526.01 63.32 524.92 C 62.27 523.64 60.89 522.54 60.47 520.87 C 59.18 519.08 58.08 517.16 56.67 515.46 C 56.16 514.27 55.61 513.12 54.98 512.00 C 54.05 509.98 52.94 508.05 51.81 506.13 C 50.77 504.75 49.66 503.34 49.55 501.53 L 48.81 501.44 C 47.85 497.80 45.64 494.66 43.88 491.37 C 42.95 488.93 42.29 486.27 40.78 484.11 C 40.67 483.60 40.46 482.56 40.36 482.04 C 37.38 478.27 37.09 472.97 34.55 469.11 C 34.44 468.02 34.34 466.95 34.25 465.87 C 33.91 465.55 33.21 464.90 32.87 464.58 C 31.86 461.18 31.43 457.58 29.83 454.38 C 28.97 449.81 26.74 445.58 26.38 440.90 C 23.20 438.47 26.53 433.44 23.57 431.15 C 23.42 428.84 23.76 426.40 22.69 424.27 C 21.33 421.14 21.96 417.66 21.62 414.37 L 20.47 414.44 C 20.22 406.62 20.46 398.79 19.86 390.99 C 19.91 315.67 19.92 240.35 19.92 165.02 C 20.47 156.33 20.29 147.62 20.26 138.92 C 20.41 106.61 20.30 74.29 20.34 41.97 C 20.35 38.30 20.49 34.60 19.85 30.96 C 19.60 29.62 19.80 28.35 20.45 27.15 Z" />
<path fill="#fcefd5" opacity="1.00" d=" M 41.23 396.95 C 41.34 279.78 41.07 162.59 41.36 45.41 C 262.67 45.59 483.98 45.45 705.29 45.49 C 705.25 156.31 705.28 267.13 705.27 377.95 C 705.20 388.99 705.68 400.08 704.21 411.06 C 699.36 450.11 684.78 487.94 662.25 520.21 C 641.48 550.15 613.60 574.91 582.11 593.13 C 543.13 615.75 499.23 628.76 454.86 635.53 C 417.21 641.09 379.00 643.03 341.01 640.65 C 295.73 637.97 250.38 630.27 207.93 613.92 C 174.10 600.96 142.30 582.13 115.95 557.15 C 78.71 522.09 53.48 474.78 44.22 424.53 C 42.66 415.42 41.18 406.22 41.23 396.95 M 51.77 54.75 C 51.78 169.83 51.74 284.92 51.79 400.01 C 53.23 423.42 59.20 446.39 67.77 468.16 C 76.25 489.04 87.56 508.81 101.65 526.41 C 122.22 552.41 148.55 573.57 177.67 589.28 C 216.34 610.27 259.48 621.84 302.90 627.67 C 353.35 634.33 404.73 633.82 455.01 625.98 C 494.61 619.70 533.74 608.31 569.07 589.11 C 599.05 572.92 625.99 550.85 646.82 523.83 C 671.74 491.52 688.05 452.59 693.44 412.13 C 695.31 399.51 694.59 386.74 694.73 374.03 C 694.65 267.58 694.88 161.13 694.61 54.68 C 668.40 54.87 642.19 54.71 615.97 54.76 C 427.90 54.75 239.84 54.78 51.77 54.75 Z" />
<path fill="#fcefd5" opacity="1.00" d=" M 149.47 98.62 C 153.41 96.92 157.81 98.08 161.62 99.54 C 165.43 101.02 168.40 104.79 168.01 109.01 C 167.99 228.68 168.00 348.35 168.00 468.03 C 168.23 471.68 165.95 475.13 162.66 476.63 C 157.99 478.91 151.78 480.29 147.30 476.85 C 142.59 473.12 142.13 466.54 142.00 461.00 C 142.00 347.33 142.00 233.67 142.00 120.00 C 142.01 112.58 141.44 102.28 149.47 98.62 Z" />
<path fill="#fcefd5" opacity="1.00" d=" M 456.04 100.01 C 458.98 97.19 463.28 97.74 467.01 97.71 C 536.68 97.74 606.35 97.72 676.02 97.72 C 680.83 97.56 686.55 100.01 687.88 105.04 C 688.43 109.13 688.95 113.88 686.52 117.50 C 682.85 122.04 676.41 122.45 671.01 122.75 C 606.53 122.74 542.05 122.84 477.58 122.70 C 477.46 178.73 477.49 234.76 477.56 290.78 C 483.40 287.59 489.52 284.85 495.91 282.97 C 504.87 281.35 513.98 280.44 523.08 280.04 C 555.44 280.75 586.85 289.99 617.13 300.76 C 622.05 302.01 624.72 307.32 624.99 312.06 C 624.59 318.40 619.60 326.13 612.36 324.52 C 587.72 316.69 562.75 309.32 537.02 306.10 C 523.10 304.55 508.46 304.00 495.17 309.14 C 486.36 312.53 478.66 320.34 477.52 329.97 C 477.47 379.54 477.58 429.12 477.46 478.69 C 469.04 478.81 460.62 479.27 452.20 479.52 C 452.39 428.33 451.99 377.14 452.40 325.96 C 452.57 253.62 452.43 181.28 452.47 108.94 C 452.36 105.63 453.85 102.42 456.04 100.01 Z" />
<path fill="#fcefd5" opacity="1.00" d=" M 553.28 525.87 C 556.98 528.73 560.39 531.95 564.04 534.89 C 568.63 533.79 573.20 532.57 577.83 531.58 C 576.14 535.89 574.09 540.06 572.24 544.31 C 574.65 548.29 577.29 552.12 579.69 556.11 C 574.87 556.02 570.06 554.87 565.28 555.17 C 562.08 558.54 559.25 562.24 556.06 565.63 C 555.00 561.12 554.04 556.58 553.02 552.06 C 548.61 550.20 544.02 548.78 539.75 546.62 C 543.90 544.41 547.92 541.97 552.05 539.71 C 552.54 535.10 552.71 530.47 553.28 525.87 Z" />
<path fill="#fcefd5" opacity="1.00" d=" M 195.11 540.46 C 198.63 537.28 201.85 533.77 205.57 530.81 C 206.17 535.36 206.64 539.92 207.39 544.45 C 211.66 546.61 216.02 548.60 220.19 550.93 C 215.84 552.96 211.45 554.87 207.11 556.91 C 206.36 561.48 205.58 566.05 204.76 570.61 C 201.37 567.36 198.01 564.07 194.96 560.50 C 190.10 561.13 185.28 562.00 180.42 562.56 C 182.75 558.42 185.24 554.36 187.46 550.16 C 185.14 546.22 183.06 542.15 181.01 538.07 C 185.76 538.55 190.40 539.71 195.11 540.46 Z" />
<path fill="#fcefd5" opacity="1.00" d=" M 510.47 540.11 C 513.64 543.78 516.92 547.37 520.10 551.04 C 524.68 550.48 529.25 549.83 533.84 549.33 C 532.00 553.26 529.65 556.93 527.75 560.82 C 527.23 561.61 527.24 562.41 527.76 563.21 C 529.64 567.18 531.52 571.15 533.42 575.12 C 528.73 574.21 524.14 572.83 519.42 572.10 C 516.26 575.49 512.96 578.73 509.63 581.95 C 508.76 577.12 508.92 572.05 507.55 567.37 C 503.73 564.86 499.62 562.83 495.67 560.55 C 499.52 557.85 504.12 556.58 508.23 554.34 C 508.82 549.57 509.69 544.85 510.47 540.11 Z" />
<path fill="#fcefd5" opacity="1.00" d=" M 237.60 557.77 C 240.56 554.16 243.65 550.67 246.70 547.16 C 247.78 551.65 248.81 556.15 249.67 560.68 C 254.12 562.61 258.66 564.28 263.14 566.14 C 259.12 568.81 254.43 570.58 250.75 573.66 C 250.15 578.11 250.12 582.61 249.66 587.08 C 245.99 584.22 242.67 580.95 238.99 578.15 C 234.21 578.61 229.67 580.40 224.93 581.13 C 226.73 576.84 228.75 572.66 230.61 568.40 C 228.07 564.47 225.56 560.52 223.01 556.59 C 227.88 556.93 232.72 557.59 237.60 557.77 Z" />
<path fill="#fcefd5" opacity="1.00" d=" M 466.18 552.30 C 469.30 555.72 472.15 559.40 475.40 562.71 C 480.01 563.05 484.64 561.73 489.26 561.40 C 487.36 565.78 484.40 569.59 482.38 573.91 C 484.44 578.00 486.32 582.18 488.19 586.37 C 483.66 585.58 479.19 584.47 474.74 583.36 C 471.12 586.41 467.79 589.78 464.27 592.93 C 463.65 588.26 463.25 583.58 462.90 578.89 C 459.06 576.71 455.13 574.70 451.40 572.36 C 451.33 572.18 451.21 571.81 451.15 571.63 C 455.19 569.72 459.39 568.15 463.44 566.27 C 464.41 561.62 465.32 556.97 466.18 552.30 Z" />
<path fill="#fcefd5" opacity="1.00" d=" M 290.46 556.21 C 290.69 556.23 291.14 556.25 291.37 556.26 C 292.94 560.53 294.00 564.97 295.61 569.22 C 300.07 570.40 304.47 571.78 308.89 573.07 C 305.15 576.10 301.28 578.97 297.54 582.01 C 297.77 586.68 297.94 591.36 297.91 596.04 C 293.85 594.13 290.54 590.91 286.96 588.24 C 282.32 589.59 277.98 591.76 273.37 593.19 C 274.78 588.48 276.90 583.78 277.42 578.93 C 274.89 575.08 271.92 571.54 269.22 567.81 C 273.88 567.80 278.54 567.49 283.21 567.43 C 285.70 563.74 287.90 559.85 290.46 556.21 Z" />
<path fill="#fcefd5" opacity="1.00" d=" M 329.01 572.92 C 331.44 568.85 334.06 564.91 336.69 560.98 C 338.25 565.48 339.80 569.98 341.46 574.45 C 345.99 575.52 350.46 576.79 354.95 578.03 C 351.30 581.02 347.51 583.85 343.80 586.78 C 344.07 591.44 344.38 596.10 344.52 600.78 C 340.51 598.38 336.95 595.29 332.87 593.03 C 328.42 594.33 324.25 596.43 319.86 597.91 C 321.06 593.35 322.43 588.83 323.76 584.30 C 320.79 580.64 317.75 577.05 314.92 573.29 C 319.62 573.26 324.31 572.99 329.01 572.92 Z" />
<path fill="#fcefd5" opacity="1.00" d=" M 422.75 561.33 C 422.92 561.33 423.25 561.33 423.41 561.33 C 425.93 565.01 428.33 568.77 430.66 572.58 C 435.41 573.03 440.18 573.00 444.95 573.06 C 442.02 576.70 439.32 580.51 436.32 584.09 C 437.45 588.80 439.18 593.34 440.33 598.05 C 436.35 596.67 432.50 594.95 428.55 593.50 C 427.42 592.85 426.35 593.72 425.47 594.33 C 422.32 596.57 419.25 598.93 416.04 601.08 C 415.86 596.33 416.31 591.60 416.24 586.86 C 412.57 583.89 408.74 581.13 405.05 578.19 C 409.49 576.84 413.96 575.58 418.45 574.38 C 419.95 570.05 421.41 565.71 422.75 561.33 Z" />
<path fill="#fcefd5" opacity="1.00" d=" M 380.50 563.08 C 382.91 567.20 384.83 571.57 387.05 575.80 C 391.67 576.40 396.30 577.00 400.93 577.62 C 397.58 581.01 394.33 584.48 391.03 587.92 C 391.84 592.57 392.74 597.20 393.50 601.87 C 389.25 599.95 385.21 597.63 381.05 595.54 C 377.04 597.91 372.94 600.13 368.90 602.46 C 369.43 597.69 370.28 592.98 370.92 588.24 C 367.60 584.88 364.04 581.77 360.78 578.37 C 365.42 577.51 370.09 576.85 374.72 575.93 C 376.53 571.59 378.58 567.36 380.50 563.08 Z" />
</g>
<g id="#1b3f4bff">
<path fill="#1b3f4b" opacity="1.00" d=" M 725.25 26.98 C 725.72 27.11 725.84 27.51 725.59 28.16 C 725.17 35.75 725.51 43.35 725.40 50.94 C 725.40 163.63 725.40 276.31 725.40 389.00 C 725.99 412.43 721.07 435.65 714.13 457.92 C 696.57 514.34 659.43 564.62 610.07 597.19 C 602.35 602.83 594.01 607.54 585.68 612.21 C 585.19 612.29 584.20 612.44 583.70 612.51 C 580.66 615.71 576.21 616.74 572.46 618.83 C 563.30 623.80 553.51 627.43 543.87 631.32 C 525.95 637.92 507.61 643.51 488.87 647.26 C 463.69 653.19 437.87 656.12 412.10 658.10 C 403.39 658.24 394.74 659.66 386.02 659.24 C 358.61 660.16 331.19 658.30 303.96 655.24 C 265.70 650.63 227.77 641.92 192.08 627.20 C 155.32 612.10 121.10 590.20 93.47 561.49 C 68.08 535.01 48.29 503.20 35.84 468.68 C 25.84 440.98 19.81 411.55 20.59 382.01 C 20.46 309.66 20.57 237.31 20.52 164.97 C 20.68 159.28 21.06 153.61 20.89 147.92 C 20.89 113.28 20.92 78.63 20.91 43.99 C 21.01 38.61 20.80 33.24 20.52 27.87 C 254.03 27.94 487.54 27.87 721.04 27.91 C 722.50 27.91 723.90 27.60 725.25 26.98 M 41.23 396.95 C 41.18 406.22 42.66 415.42 44.22 424.53 C 53.48 474.78 78.71 522.09 115.95 557.15 C 142.30 582.13 174.10 600.96 207.93 613.92 C 250.38 630.27 295.73 637.97 341.01 640.65 C 379.00 643.03 417.21 641.09 454.86 635.53 C 499.23 628.76 543.13 615.75 582.11 593.13 C 613.60 574.91 641.48 550.15 662.25 520.21 C 684.78 487.94 699.36 450.11 704.21 411.06 C 705.68 400.08 705.20 388.99 705.27 377.95 C 705.28 267.13 705.25 156.31 705.29 45.49 C 483.98 45.45 262.67 45.59 41.36 45.41 C 41.07 162.59 41.34 279.78 41.23 396.95 Z" />
<path fill="#1b3f4b" opacity="1.00" d=" M 51.77 54.75 C 239.84 54.78 427.90 54.75 615.97 54.76 C 642.19 54.71 668.40 54.87 694.61 54.68 C 694.88 161.13 694.65 267.58 694.73 374.03 C 694.59 386.74 695.31 399.51 693.44 412.13 C 688.05 452.59 671.74 491.52 646.82 523.83 C 625.99 550.85 599.05 572.92 569.07 589.11 C 533.74 608.31 494.61 619.70 455.01 625.98 C 404.73 633.82 353.35 634.33 302.90 627.67 C 259.48 621.84 216.34 610.27 177.67 589.28 C 148.55 573.57 122.22 552.41 101.65 526.41 C 87.56 508.81 76.25 489.04 67.77 468.16 C 59.20 446.39 53.23 423.42 51.79 400.01 C 51.74 284.92 51.78 169.83 51.77 54.75 M 149.47 98.62 C 141.44 102.28 142.01 112.58 142.00 120.00 C 142.00 233.67 142.00 347.33 142.00 461.00 C 142.13 466.54 142.59 473.12 147.30 476.85 C 151.78 480.29 157.99 478.91 162.66 476.63 C 165.95 475.13 168.23 471.68 168.00 468.03 C 168.00 348.35 167.99 228.68 168.01 109.01 C 168.40 104.79 165.43 101.02 161.62 99.54 C 157.81 98.08 153.41 96.92 149.47 98.62 M 239.94 100.20 C 228.68 100.72 217.29 104.17 208.49 111.39 C 204.52 115.59 201.20 121.00 201.71 127.01 C 201.64 239.67 201.71 352.33 201.67 464.99 C 201.70 468.69 200.92 473.07 204.06 475.82 C 207.49 479.85 213.26 479.15 217.93 478.44 C 222.33 476.60 223.91 471.38 223.61 466.96 C 223.64 356.97 223.61 246.98 223.63 136.99 C 223.65 133.81 224.06 130.65 224.49 127.51 C 227.84 125.96 231.31 124.60 234.99 124.10 C 246.21 121.99 257.64 121.49 269.01 120.67 C 297.38 118.51 326.13 120.32 353.88 126.73 C 366.74 130.47 379.25 135.96 389.91 144.16 C 398.45 151.74 406.47 160.42 410.95 171.08 C 418.86 188.51 420.65 208.09 419.19 226.99 C 418.05 237.01 416.00 246.99 412.44 256.45 C 409.24 264.35 403.71 270.94 398.59 277.64 C 388.42 289.19 375.47 298.08 361.58 304.58 C 355.40 306.68 349.56 309.77 343.13 311.10 C 336.04 312.64 328.97 314.69 321.67 314.82 C 320.82 322.08 322.43 329.56 320.74 336.70 C 321.41 337.26 322.09 337.83 322.78 338.40 C 334.48 335.73 346.82 335.04 357.82 329.81 C 380.82 321.45 402.66 308.53 418.82 289.90 C 434.43 271.84 441.85 247.70 441.57 224.01 C 441.32 213.01 442.32 201.90 440.20 191.02 C 439.14 182.16 435.96 173.78 432.72 165.53 C 428.47 156.79 424.46 147.66 417.74 140.47 C 413.74 135.37 409.69 130.15 404.20 126.55 C 392.73 117.17 379.29 110.21 365.07 106.06 C 341.23 98.33 315.88 97.46 291.02 97.68 C 273.96 97.50 256.91 98.48 239.94 100.20 M 456.04 100.01 C 453.85 102.42 452.36 105.63 452.47 108.94 C 452.43 181.28 452.57 253.62 452.40 325.96 C 451.99 377.14 452.39 428.33 452.20 479.52 C 460.62 479.27 469.04 478.81 477.46 478.69 C 477.58 429.12 477.47 379.54 477.52 329.97 C 478.66 320.34 486.36 312.53 495.17 309.14 C 508.46 304.00 523.10 304.55 537.02 306.10 C 562.75 309.32 587.72 316.69 612.36 324.52 C 619.60 326.13 624.59 318.40 624.99 312.06 C 624.72 307.32 622.05 302.01 617.13 300.76 C 586.85 289.99 555.44 280.75 523.08 280.04 C 513.98 280.44 504.87 281.35 495.91 282.97 C 489.52 284.85 483.40 287.59 477.56 290.78 C 477.49 234.76 477.46 178.73 477.58 122.70 C 542.05 122.84 606.53 122.74 671.01 122.75 C 676.41 122.45 682.85 122.04 686.52 117.50 C 688.95 113.88 688.43 109.13 687.88 105.04 C 686.55 100.01 680.83 97.56 676.02 97.72 C 606.35 97.72 536.68 97.74 467.01 97.71 C 463.28 97.74 458.98 97.19 456.04 100.01 M 553.28 525.87 C 552.71 530.47 552.54 535.10 552.05 539.71 C 547.92 541.97 543.90 544.41 539.75 546.62 C 544.02 548.78 548.61 550.20 553.02 552.06 C 554.04 556.58 555.00 561.12 556.06 565.63 C 559.25 562.24 562.08 558.54 565.28 555.17 C 570.06 554.87 574.87 556.02 579.69 556.11 C 577.29 552.12 574.65 548.29 572.24 544.31 C 574.09 540.06 576.14 535.89 577.83 531.58 C 573.20 532.57 568.63 533.79 564.04 534.89 C 560.39 531.95 556.98 528.73 553.28 525.87 M 195.11 540.46 C 190.40 539.71 185.76 538.55 181.01 538.07 C 183.06 542.15 185.14 546.22 187.46 550.16 C 185.24 554.36 182.75 558.42 180.42 562.56 C 185.28 562.00 190.10 561.13 194.96 560.50 C 198.01 564.07 201.37 567.36 204.76 570.61 C 205.58 566.05 206.36 561.48 207.11 556.91 C 211.45 554.87 215.84 552.96 220.19 550.93 C 216.02 548.60 211.66 546.61 207.39 544.45 C 206.64 539.92 206.17 535.36 205.57 530.81 C 201.85 533.77 198.63 537.28 195.11 540.46 M 510.47 540.11 C 509.69 544.85 508.82 549.57 508.23 554.34 C 504.12 556.58 499.52 557.85 495.67 560.55 C 499.62 562.83 503.73 564.86 507.55 567.37 C 508.92 572.05 508.76 577.12 509.63 581.95 C 512.96 578.73 516.26 575.49 519.42 572.10 C 524.14 572.83 528.73 574.21 533.42 575.12 C 531.52 571.15 529.64 567.18 527.76 563.21 C 527.24 562.41 527.23 561.61 527.75 560.82 C 529.65 556.93 532.00 553.26 533.84 549.33 C 529.25 549.83 524.68 550.48 520.10 551.04 C 516.92 547.37 513.64 543.78 510.47 540.11 M 237.60 557.77 C 232.72 557.59 227.88 556.93 223.01 556.59 C 225.56 560.52 228.07 564.47 230.61 568.40 C 228.75 572.66 226.73 576.84 224.93 581.13 C 229.67 580.40 234.21 578.61 238.99 578.15 C 242.67 580.95 245.99 584.22 249.66 587.08 C 250.12 582.61 250.15 578.11 250.75 573.66 C 254.43 570.58 259.12 568.81 263.14 566.14 C 258.66 564.28 254.12 562.61 249.67 560.68 C 248.81 556.15 247.78 551.65 246.70 547.16 C 243.65 550.67 240.56 554.16 237.60 557.77 M 466.18 552.30 C 465.32 556.97 464.41 561.62 463.44 566.27 C 459.39 568.15 455.19 569.72 451.15 571.63 C 451.21 571.81 451.33 572.18 451.40 572.36 C 455.13 574.70 459.06 576.71 462.90 578.89 C 463.25 583.58 463.65 588.26 464.27 592.93 C 467.79 589.78 471.12 586.41 474.74 583.36 C 479.19 584.47 483.66 585.58 488.19 586.37 C 486.32 582.18 484.44 578.00 482.38 573.91 C 484.40 569.59 487.36 565.78 489.26 561.40 C 484.64 561.73 480.01 563.05 475.40 562.71 C 472.15 559.40 469.30 555.72 466.18 552.30 M 290.46 556.21 C 287.90 559.85 285.70 563.74 283.21 567.43 C 278.54 567.49 273.88 567.80 269.22 567.81 C 271.92 571.54 274.89 575.08 277.42 578.93 C 276.90 583.78 274.78 588.48 273.37 593.19 C 277.98 591.76 282.32 589.59 286.96 588.24 C 290.54 590.91 293.85 594.13 297.91 596.04 C 297.94 591.36 297.77 586.68 297.54 582.01 C 301.28 578.97 305.15 576.10 308.89 573.07 C 304.47 571.78 300.07 570.40 295.61 569.22 C 294.00 564.97 292.94 560.53 291.37 556.26 C 291.14 556.25 290.69 556.23 290.46 556.21 M 329.01 572.92 C 324.31 572.99 319.62 573.26 314.92 573.29 C 317.75 577.05 320.79 580.64 323.76 584.30 C 322.43 588.83 321.06 593.35 319.86 597.91 C 324.25 596.43 328.42 594.33 332.87 593.03 C 336.95 595.29 340.51 598.38 344.52 600.78 C 344.38 596.10 344.07 591.44 343.80 586.78 C 347.51 583.85 351.30 581.02 354.95 578.03 C 350.46 576.79 345.99 575.52 341.46 574.45 C 339.80 569.98 338.25 565.48 336.69 560.98 C 334.06 564.91 331.44 568.85 329.01 572.92 M 422.75 561.33 C 421.41 565.71 419.95 570.05 418.45 574.38 C 413.96 575.58 409.49 576.84 405.05 578.19 C 408.74 581.13 412.57 583.89 416.24 586.86 C 416.31 591.60 415.86 596.33 416.04 601.08 C 419.25 598.93 422.32 596.57 425.47 594.33 C 426.35 593.72 427.42 592.85 428.55 593.50 C 432.50 594.95 436.35 596.67 440.33 598.05 C 439.18 593.34 437.45 588.80 436.32 584.09 C 439.32 580.51 442.02 576.70 444.95 573.06 C 440.18 573.00 435.41 573.03 430.66 572.58 C 428.33 568.77 425.93 565.01 423.41 561.33 C 423.25 561.33 422.92 561.33 422.75 561.33 M 380.50 563.08 C 378.58 567.36 376.53 571.59 374.72 575.93 C 370.09 576.85 365.42 577.51 360.78 578.37 C 364.04 581.77 367.60 584.88 370.92 588.24 C 370.28 592.98 369.43 597.69 368.90 602.46 C 372.94 600.13 377.04 597.91 381.05 595.54 C 385.21 597.63 389.25 599.95 393.50 601.87 C 392.74 597.20 391.84 592.57 391.03 587.92 C 394.33 584.48 397.58 581.01 400.93 577.62 C 396.30 577.00 391.67 576.40 387.05 575.80 C 384.83 571.57 382.91 567.20 380.50 563.08 Z" />
</g>
<g id="#009b01ff">
<path fill="#009b01" opacity="1.00" d=" M 239.94 100.20 C 256.91 98.48 273.96 97.50 291.02 97.68 C 315.88 97.46 341.23 98.33 365.07 106.06 C 379.29 110.21 392.73 117.17 404.20 126.55 C 409.69 130.15 413.74 135.37 417.74 140.47 C 424.46 147.66 428.47 156.79 432.72 165.53 C 435.96 173.78 439.14 182.16 440.20 191.02 C 442.32 201.90 441.32 213.01 441.57 224.01 C 441.85 247.70 434.43 271.84 418.82 289.90 C 402.66 308.53 380.82 321.45 357.82 329.81 C 346.82 335.04 334.48 335.73 322.78 338.40 C 322.09 337.83 321.41 337.26 320.74 336.70 C 322.43 329.56 320.82 322.08 321.67 314.82 C 328.97 314.69 336.04 312.64 343.13 311.10 C 349.56 309.77 355.40 306.68 361.58 304.58 C 375.47 298.08 388.42 289.19 398.59 277.64 C 403.71 270.94 409.24 264.35 412.44 256.45 C 416.00 246.99 418.05 237.01 419.19 226.99 C 420.65 208.09 418.86 188.51 410.95 171.08 C 406.47 160.42 398.45 151.74 389.91 144.16 C 379.25 135.96 366.74 130.47 353.88 126.73 C 326.13 120.32 297.38 118.51 269.01 120.67 C 257.64 121.49 246.21 121.99 234.99 124.10 C 231.31 124.60 227.84 125.96 224.49 127.51 C 224.06 130.65 223.65 133.81 223.63 136.99 C 223.61 246.98 223.64 356.97 223.61 466.96 C 223.91 471.38 222.33 476.60 217.93 478.44 C 213.26 479.15 207.49 479.85 204.06 475.82 C 200.92 473.07 201.70 468.69 201.67 464.99 C 201.71 352.33 201.64 239.67 201.71 127.01 C 201.20 121.00 204.52 115.59 208.49 111.39 C 217.29 104.17 228.68 100.72 239.94 100.20 Z" />
</g>
</svg>
