<?xml version="1.0" standalone="no"?>
<!DOCTYPE svg PUBLIC "-//W3C//DTD SVG 20010904//EN"
 "http://www.w3.org/TR/2001/REC-SVG-20010904/DTD/svg10.dtd">
<svg version="1.0" xmlns="http://www.w3.org/2000/svg"
 width="750.000000pt" height="681.000000pt" viewBox="0 0 750.000000 681.000000"
 preserveAspectRatio="xMidYMid meet">

<g transform="translate(0.000000,681.000000) scale(0.100000,-0.100000)"
fill="#000000" stroke="none">
<path d="M210 4648 c0 -2014 -1 -1946 50 -2178 147 -677 543 -1255 1126 -1645
516 -345 1168 -541 1989 -596 190 -13 706 -7 875 11 1072 108 1835 449 2370
1059 289 330 489 739 598 1226 l26 120 3 1943 3 1942 -3520 0 -3520 0 0 -1882z
m6840 -100 c0 -1753 -1 -1817 -20 -1933 -132 -809 -650 -1485 -1414 -1845
-749 -354 -1773 -467 -2765 -305 -525 86 -971 252 -1349 502 -584 386 -972
993 -1073 1678 -18 124 -19 209 -19 1916 0 982 3 1789 7 1792 3 4 1497 7 3320
7 l3313 0 0 -1812z"/>
<path d="M523 4463 l3 -1798 27 -125 c206 -927 857 -1587 1847 -1873 387 -113
748 -164 1220 -174 1369 -29 2402 399 2948 1222 201 304 338 686 372 1040 6
71 10 713 10 1808 l0 1697 -3215 0 -3215 0 3 -1797z m1091 1353 c72 -30 66
143 66 -1891 0 -2046 7 -1859 -75 -1890 -82 -32 -154 -1 -175 74 -14 51 -14
3583 1 3634 15 55 54 87 107 87 23 0 58 -6 76 -14z m5242 -19 c19 -23 24 -39
24 -85 0 -74 -17 -97 -82 -117 -45 -13 -182 -15 -1035 -15 l-983 0 0 -835 c0
-459 2 -835 5 -835 3 0 27 11 53 24 153 78 412 95 695 46 230 -39 640 -163
683 -205 29 -29 39 -84 24 -129 -12 -38 -61 -86 -88 -86 -9 0 -75 18 -147 40
-514 159 -869 197 -1055 114 -78 -36 -117 -69 -145 -124 l-25 -49 0 -756 c0
-596 -3 -756 -12 -760 -7 -2 -66 -5 -130 -7 l-118 -4 0 1858 c0 1996 -2 1906
48 1944 14 11 219 13 1140 11 l1124 -2 24 -28z m-1253 -4303 l38 -32 52 14
c89 24 90 23 58 -49 l-28 -62 33 -50 c19 -27 34 -54 34 -59 0 -5 -30 -6 -69
-2 l-68 7 -43 -51 c-24 -28 -46 -48 -50 -43 -4 4 -12 33 -19 65 -12 56 -12 56
-69 79 -31 12 -60 25 -65 29 -4 3 19 21 52 39 l59 34 7 69 c8 76 1 75 78 12z
m-3463 -159 l65 -33 -67 -32 -66 -31 -11 -61 c-6 -33 -13 -64 -17 -67 -3 -3
-26 16 -50 43 l-45 49 -69 -10 c-39 -5 -70 -6 -70 -2 0 5 14 32 31 61 l31 52
-32 65 -31 64 33 -7 c108 -22 104 -22 161 30 l52 49 10 -69 10 -68 65 -33z
m3018 14 l47 -50 60 9 c33 6 62 8 64 6 3 -3 -7 -29 -22 -60 -15 -30 -27 -60
-27 -67 0 -6 11 -36 25 -66 14 -30 24 -56 22 -58 -2 -2 -33 3 -68 11 l-64 15
-45 -44 c-25 -25 -48 -45 -52 -45 -3 0 -8 31 -12 68 l-7 68 -60 33 c-32 18
-57 36 -54 41 2 4 29 17 59 30 l54 22 12 69 c7 38 14 69 17 69 2 0 25 -23 51
-51z m-2668 -105 c9 -39 15 -43 68 -64 31 -13 60 -26 64 -29 4 -4 -19 -21 -52
-39 -63 -35 -62 -33 -72 -145 l-3 -28 -54 46 c-32 27 -60 44 -70 41 -54 -16
-113 -28 -117 -23 -3 3 6 28 20 56 14 28 26 56 26 63 0 7 -16 38 -36 67 l-37
54 75 -6 74 -5 45 54 44 54 7 -28 c4 -15 12 -46 18 -68z m2334 -56 c36 5 66 6
66 4 0 -2 -14 -31 -32 -63 l-32 -59 27 -56 c16 -31 25 -59 22 -62 -3 -3 -28 0
-56 6 -73 17 -75 17 -129 -34 l-49 -45 -7 71 -7 71 -58 32 c-32 18 -59 35 -59
38 0 3 26 16 58 29 66 27 68 29 77 88 12 80 14 80 66 24 l47 -51 66 7z m-1890
-2 l18 -65 70 -21 69 -21 -55 -42 -55 -42 -1 -72 c0 -65 -9 -89 -24 -65 -2 4
-24 22 -48 39 l-44 31 -54 -24 c-78 -33 -80 -32 -59 33 25 75 24 83 -16 136
-19 25 -35 48 -35 50 0 3 31 8 68 12 l69 7 33 54 c18 30 36 54 40 54 4 0 15
-29 24 -64z m456 -52 c12 -36 27 -67 34 -69 6 -2 37 -11 70 -20 l58 -16 -56
-42 -57 -42 4 -67 c3 -41 0 -68 -5 -68 -6 0 -32 16 -59 36 l-49 36 -62 -26
c-35 -14 -64 -22 -65 -18 -2 4 5 34 15 67 l19 60 -45 55 -45 55 71 3 70 3 39
59 c21 33 39 60 40 60 1 0 11 -30 23 -66z m992 -54 l69 0 -44 -57 -44 -58 18
-50 c21 -61 24 -89 7 -82 -7 3 -36 14 -64 25 l-51 21 -57 -41 -56 -40 0 74 -1
73 -56 42 -55 42 58 16 c33 9 64 18 70 20 5 1 16 22 23 46 31 102 27 100 73
31 l41 -62 69 0z m-537 23 l23 -51 66 -7 c36 -4 66 -9 66 -12 0 -3 -20 -28
-44 -57 -43 -49 -44 -54 -36 -91 5 -22 10 -52 10 -67 l0 -28 -59 31 -60 32
-56 -32 c-32 -18 -59 -30 -62 -27 -3 3 0 33 6 68 l11 63 -51 51 -51 52 70 12
70 11 27 65 c31 72 31 72 70 -13z"/>
</g>
</svg>
